<svg width="20" height="21" viewBox="0 0 20 21" fill="none" xmlns="http://www.w3.org/2000/svg">
<path d="M16.6667 4.13062H3.33341C2.41675 4.13062 1.67508 4.88062 1.67508 5.79728L1.66675 15.7973C1.66675 16.7139 2.41675 17.4639 3.33341 17.4639H16.6667C17.5834 17.4639 18.3334 16.7139 18.3334 15.7973V5.79728C18.3334 4.88062 17.5834 4.13062 16.6667 4.13062ZM16.3334 7.67228L10.4417 11.3556C10.1751 11.5223 9.82508 11.5223 9.55842 11.3556L3.66675 7.67228C3.45841 7.53895 3.33341 7.31395 3.33341 7.07228C3.33341 6.51395 3.94175 6.18062 4.41675 6.47228L10.0001 9.96395L15.5834 6.47228C16.0584 6.18062 16.6667 6.51395 16.6667 7.07228C16.6667 7.31395 16.5417 7.53895 16.3334 7.67228Z" fill="white"/>
</svg>
