<svg width="21" height="21" viewBox="0 0 21 21" fill="none" xmlns="http://www.w3.org/2000/svg">
<path d="M9.66294 5.01601C10.0809 5.42401 14.1649 9.71101 14.1649 9.71101C14.2708 9.81314 14.355 9.93555 14.4125 10.0709C14.47 10.2063 14.4996 10.3519 14.4996 10.499C14.4996 10.6461 14.47 10.7917 14.4125 10.9271C14.355 11.0625 14.2708 11.1849 14.1649 11.287C14.1649 11.287 10.0809 15.576 9.66294 15.982C9.24494 16.39 8.49294 16.418 8.04794 15.982C7.60194 15.548 7.56694 14.941 8.04794 14.408L11.7949 10.5L8.04794 6.59201C7.56694 6.05901 7.60194 5.45101 8.04794 5.01601C8.49294 4.58001 9.24494 4.60701 9.66294 5.01601Z" fill="#B3B3B3"/>
</svg>
