<svg width="32" height="33" viewBox="0 0 32 33" fill="none" xmlns="http://www.w3.org/2000/svg">
<circle cx="16" cy="16.7974" r="16" fill="#2C2C2C"/>
<path d="M12.6666 26.7975C14.5066 26.7975 15.9999 25.3042 15.9999 23.4642V20.1309H12.6666C10.8266 20.1309 9.33325 21.6242 9.33325 23.4642C9.33325 25.3042 10.8266 26.7975 12.6666 26.7975Z" fill="#0ACF83"/>
<path d="M9.33325 16.7972C9.33325 14.9572 10.8266 13.4639 12.6666 13.4639H15.9999V20.1305H12.6666C10.8266 20.1305 9.33325 18.6372 9.33325 16.7972Z" fill="#A259FF"/>
<path d="M9.33325 10.1307C9.33325 8.2907 10.8266 6.79736 12.6666 6.79736H15.9999V13.464H12.6666C10.8266 13.464 9.33325 11.9707 9.33325 10.1307Z" fill="#F24E1E"/>
<path d="M16 6.79736H19.3333C21.1733 6.79736 22.6667 8.2907 22.6667 10.1307C22.6667 11.9707 21.1733 13.464 19.3333 13.464H16V6.79736Z" fill="#FF7262"/>
<path d="M22.6667 16.7972C22.6667 18.6372 21.1733 20.1305 19.3333 20.1305C17.4933 20.1305 16 18.6372 16 16.7972C16 14.9572 17.4933 13.4639 19.3333 13.4639C21.1733 13.4639 22.6667 14.9572 22.6667 16.7972Z" fill="#1ABCFE"/>
</svg>
