<svg width="32" height="33" viewBox="0 0 32 33" fill="none" xmlns="http://www.w3.org/2000/svg">
<circle cx="16" cy="16.7974" r="16" fill="#0A66C2"/>
<path d="M24.6652 24.131H21.3525V18.934C21.3525 17.6947 21.3304 16.0994 19.6295 16.0994C17.9041 16.0994 17.6401 17.4496 17.6401 18.8438V24.1306H14.3274V13.4435H17.5076V14.904H17.5522C18.1997 13.7949 19.4081 13.13 20.69 13.1777C24.0475 13.1777 24.6666 15.39 24.6666 18.2682L24.6652 24.131Z" fill="white"/>
<path d="M10.5896 11.9824C10.5894 11.9824 10.5893 11.9824 10.5892 11.9824C9.53457 11.9824 8.66675 11.1132 8.66675 10.0567C8.66675 9.0002 9.53457 8.13086 10.5892 8.13086C11.6437 8.13086 12.5114 9 12.5116 10.0563C12.5116 10.0564 12.5116 10.0565 12.5116 10.0567C12.5116 11.113 11.644 11.9823 10.5896 11.9824Z" fill="white"/>
<path d="M12.2459 24.1309H8.92969V13.4434H12.2459V24.1309Z" fill="white"/>
</svg>
