<svg width="14" height="13" viewBox="0 0 14 13" fill="none" xmlns="http://www.w3.org/2000/svg">
<path d="M12.621 4.6692L8.7111 4.10096L6.96327 0.557562C6.91553 0.460546 6.837 0.382009 6.73998 0.334271C6.49667 0.214156 6.201 0.314252 6.07935 0.557562L4.33152 4.10096L0.421611 4.6692C0.313816 4.6846 0.215259 4.73542 0.139802 4.81241C0.048579 4.90617 -0.00168917 5.03232 4.3343e-05 5.16312C0.00177586 5.29393 0.0553674 5.41869 0.149042 5.51001L2.97791 8.26804L2.30958 12.1625C2.2939 12.2531 2.30393 12.3463 2.33851 12.4315C2.3731 12.5167 2.43086 12.5905 2.50525 12.6445C2.57964 12.6985 2.66768 12.7306 2.75939 12.7372C2.8511 12.7437 2.9428 12.7244 3.02411 12.6815L6.52131 10.8428L10.0185 12.6815C10.114 12.7323 10.2249 12.7493 10.3311 12.7308C10.5991 12.6846 10.7792 12.4305 10.733 12.1625L10.0647 8.26804L12.8936 5.51001C12.9706 5.43455 13.0214 5.33599 13.0368 5.2282C13.0784 4.95871 12.8905 4.70924 12.621 4.6692Z" fill="#FFB742"/>
</svg>
